<?xml version="1.0" encoding="utf-8"?>
<!-- Generator: Adobe Illustrator 20.0.0, SVG Export Plug-In . SVG Version: 6.00 Build 0)  -->
<svg version="1.1" id="Ebene_1" xmlns="http://www.w3.org/2000/svg" xmlns:xlink="http://www.w3.org/1999/xlink" x="0px" y="0px"
	 viewBox="0 0 577.9 161.2" style="enable-background:new 0 0 577.9 161.2;" xml:space="preserve">
<style type="text/css">
	.st0{fill:#FFFFFF;}
</style>
<polygon class="st0" points="490.6,142.3 490.6,142.3 490.6,142.3 "/>
<polygon class="st0" points="432.1,142.3 432.1,142.3 432.1,142.3 "/>
<polygon class="st0" points="243.1,136.4 243.1,136.4 243.1,136.4 "/>
<polygon class="st0" points="267.6,136.4 267.6,136.4 267.6,136.4 "/>
<g>
	<g>
		<path class="st0" d="M538.8,2.5v60.6c0,12.2-7,18.8-16.5,18.8c-9.5,0-15.9-6.6-15.9-18.8V2.5H467v73c0,25.4,14.5,41.4,38.3,41.4
			c15.9,0,26.3-8.7,33.5-18v15.5h39.1V2.5H538.8z M71.6,18.2C64.3,8.9,54,0,38.1,0C14.3,0,0,15.7,0,41.2v73.2h39.1V53.8
			c0-12.4,6.4-19,15.9-19c9.5,0,16.5,6.6,16.5,19v60.6h39.3V2.5H71.6V18.2z M280.3,2.5h-40.1v111.9h94.1V79.2h-54V2.5z M399.4,0
			c-35.8,0-61.9,26.7-61.9,58.5V59c0,31.9,25.9,58.1,61.4,58.1c36,0,62.1-26.7,62.1-58.5v-0.4C461.1,26.3,435.2,0,399.4,0z M423,59
			c0,13.4-9.3,24.8-23.6,24.8c-13.9,0-23.8-11.6-23.8-25.2v-0.4c0-13.7,9.1-25,23.4-25c13.9,0,24,11.6,24,25.4V59z M173.8,0
			c-33.1,0-56.5,25.9-56.5,58.5V59c0,34.5,24.8,58.1,60,58.1c22.1,0,37.6-9.1,48.4-22.8l-21.7-18c-8.1,7.9-15.3,11.4-24.8,11.4
			c-12.2,0-21.1-6.2-24.2-18.4h74.9c0.2-2.7,0.2-5.6,0.2-8.1C230.1,28.3,212.3,0,173.8,0z M154.4,49.2c2.1-12.4,9.1-20.3,19.4-20.3
			c10.8,0,18.2,7.9,19.7,20.3H154.4z"/>
	</g>
</g>
<g>
	<path class="st0" d="M121.3,135.9c-7.5,0-13.1,5.7-13.1,12.6v0.1c0,7,5.5,12.6,13,12.6c7.5,0,13.1-5.7,13.1-12.6v-0.1
		C134.4,141.5,128.8,135.9,121.3,135.9z M121.3,155.1c-3.7,0-6.2-3.1-6.2-6.6v-0.1c0-3.5,2.5-6.5,6.1-6.5c3.7,0,6.2,3.1,6.2,6.6v0.1
		l0,0C127.5,152.1,125,155.1,121.3,155.1z"/>
	<path class="st0" d="M354.7,136.4h-9.4v24.3h9.2c8.7,0,13.8-5.2,13.8-12.2v-0.1C368.4,141.4,363.3,136.4,354.7,136.4z M361.5,148.6
		c0,3.9-2.7,6.1-6.7,6.1H352v-12.3h2.7C358.8,142.4,361.5,144.7,361.5,148.6L361.5,148.6z"/>
	<path class="st0" d="M278,136.4h-10.4v24.3h6.7v-6.9h3.3c6,0,10.4-3,10.4-8.7V145C288.1,139.6,284.1,136.4,278,136.4z M281.4,145.3
		c0,1.9-1.5,3.2-3.8,3.2h-3.2v-6.4h3.2C279.9,142.1,281.4,143.2,281.4,145.3L281.4,145.3z"/>
	<rect x="174.1" y="136.4" class="st0" width="6.8" height="24.3"/>
	<polygon class="st0" points="202.9,149.3 193,136.4 186.7,136.4 186.7,160.7 193.3,160.7 193.3,147.4 203.7,160.7 209.6,160.7 
		209.6,136.4 202.9,136.4 	"/>
	<polygon class="st0" points="139.2,160.7 145.9,160.7 145.9,152 157.4,152 157.4,146.5 145.9,146.5 145.9,142.3 158.6,142.3 
		158.6,136.4 139.2,136.4 	"/>
	<polygon class="st0" points="32.8,151.1 44.4,151.1 44.4,145.8 32.8,145.8 32.8,142.2 45.7,142.2 45.7,136.4 26.1,136.4 
		26.1,160.7 45.8,160.7 45.8,155 32.8,155 	"/>
	<polygon class="st0" points="72.5,142.3 79.8,142.3 79.8,142.3 79.8,142.3 79.8,160.7 86.5,160.7 86.5,142.3 93.8,142.3 
		93.8,136.4 72.5,136.4 	"/>
	<path class="st0" d="M60.9,145.6c-3.4-0.8-4.2-1.2-4.2-2.4v-0.1c0-0.9,0.8-1.6,2.4-1.6c2.1,0,4.6,0.8,6.8,2.4l3.4-4.7
		c-2.6-2.1-5.9-3.2-10-3.2c-5.8,0-9.4,3.3-9.4,7.8v0.1c0,5,4,6.4,9.2,7.6c3.3,0.8,4.1,1.3,4.1,2.3v0.1c0,1-1,1.7-2.8,1.7
		c-2.8,0-5.5-1-7.9-2.9l-3.7,4.5l0,0c3,2.7,7.1,4,11.4,4c5.9,0,9.8-2.9,9.8-7.9v-0.1C70,148.6,66.5,146.8,60.9,145.6z"/>
	<polygon class="st0" points="379.8,151.1 391.5,151.1 391.5,145.8 379.8,145.8 379.8,142.2 392.7,142.2 392.7,136.4 373.2,136.4 
		373.2,160.7 392.9,160.7 392.9,155 379.8,155 	"/>
	<path class="st0" d="M460.7,143.8L460.7,143.8c0,5.1,4,6.5,9.2,7.7c3.3,0.8,4.1,1.3,4.1,2.3v0.1c0,1-1,1.7-2.8,1.7
		c-2.8,0-5.5-1-7.9-2.9l-3.7,4.5c3,2.7,7.1,4,11.4,4c5.9,0,9.8-2.9,9.8-7.9v-0.1c0-4.5-3.5-6.3-9-7.6c-3.4-0.8-4.2-1.2-4.2-2.4v-0.1
		c0-0.9,0.8-1.6,2.4-1.6c2.2,0,4.6,0.8,6.8,2.4l3.4-4.7c-2.6-2.1-5.9-3.2-10-3.2C464.3,136,460.7,139.3,460.7,143.8z"/>
	<polygon class="st0" points="459.6,157.1 459.6,157.1 459.6,157.1 	"/>
	<polygon class="st0" points="424.9,142.3 432.1,142.3 432.1,142.3 432.1,142.3 432.1,142.3 432.1,160.7 438.9,160.7 438.9,142.3 
		446.2,142.3 446.2,136.4 424.9,136.4 	"/>
	<polygon class="st0" points="490.6,142.3 490.6,142.3 490.6,142.3 490.6,160.7 497.3,160.7 497.3,142.3 504.6,142.3 504.6,136.4 
		483.3,136.4 483.3,142.3 490.6,142.3 	"/>
	<polygon class="st0" points="577.7,155 564.7,155 564.7,151.1 576.3,151.1 576.3,145.8 564.7,145.8 564.7,142.2 577.5,142.2 
		577.5,136.4 558,136.4 558,160.7 577.7,160.7 	"/>
	<polygon class="st0" points="553.8,154.8 542,154.8 542,136.4 535.3,136.4 535.3,160.7 553.8,160.7 	"/>
	<polygon class="st0" points="515.9,160.7 522.7,160.7 522.7,151.5 531.9,136.4 524.4,136.4 519.3,145.3 514.3,136.4 506.7,136.4 
		515.9,151.6 	"/>
	<polygon class="st0" points="413.9,149.3 403.9,136.4 397.7,136.4 397.7,160.7 404.3,160.7 404.3,147.4 414.7,160.7 420.6,160.7 
		420.6,136.4 413.9,136.4 	"/>
	<polygon class="st0" points="249.8,151.1 261.4,151.1 261.4,145.8 249.8,145.8 249.8,142.2 262.6,142.2 262.6,136.4 243.1,136.4 
		243.1,160.7 262.8,160.7 262.8,155 249.8,155 	"/>
	<path class="st0" d="M224.6,136.4h-9.4v24.3h9.2c8.7,0,13.8-5.2,13.8-12.2v-0.1C238.3,141.4,233.3,136.4,224.6,136.4z M231.4,148.6
		c0,3.9-2.7,6.1-6.7,6.1H222v-12.3h2.7C228.7,142.4,231.4,144.7,231.4,148.6L231.4,148.6z"/>
	<polygon class="st0" points="298.9,151.1 310.6,151.1 310.6,145.8 298.9,145.8 298.9,142.2 311.8,142.2 311.8,136.4 292.3,136.4 
		292.3,160.7 312,160.7 312,155 298.9,155 	"/>
	<polygon class="st0" points="333,149.3 323,136.4 316.7,136.4 316.7,160.7 323.4,160.7 323.4,147.4 333.8,160.7 339.7,160.7 
		339.7,136.4 333,136.4 	"/>
	<path class="st0" d="M16.9,148c2.1-0.9,3.7-2.6,3.7-5.4v-0.1c0-1.7-0.6-2.9-1.6-3.9c-1.4-1.4-3.6-2.2-6.6-2.2H0l0,0v24.3h12.5
		c5.8,0,9.2-2.5,9.2-6.7v-0.1C21.7,150.6,19.8,149,16.9,148z M6.6,141.8h4.4c2,0,3.1,0.8,3.1,2.1v0.1c0,1.4-1.1,2.1-3.2,2.1H6.6
		V141.8z M15,153.1c0,1.4-1.2,2.2-3.2,2.2H6.6v-4.5h5.1C13.9,150.8,15,151.7,15,153.1L15,153.1z"/>
</g>
</svg>
