<svg xmlns="http://www.w3.org/2000/svg" viewBox="0 0 577.88 161.18668" height="161.187" width="577.88"><defs><clipPath id="a"><path d="M0 0h4334v1208.93H0z"/></clipPath></defs><g clip-path="url(#a)" transform="matrix(.13333 0 0 -.13333 0 161.187)"><path d="M831.617 350.945H536.82v454.59c0 93.086-52.75 142.735-124.117 142.735-71.375 0-119.46-49.65-119.46-142.735v-454.59H0v549.22c0 190.855 107.04 308.765 285.477 308.765 119.464 0 197.04-66.71 251.343-136.54v117.93h294.797V350.945M1450.96 839.656c-10.86 93.106-66.74 152.05-147.41 152.05-77.58 0-130.33-58.944-145.84-152.05zm-570.972-72.91v3.106c0 245.138 175.312 439.078 423.562 439.078 288.58 0 422.01-212.563 422.01-459.254 0-18.614 0-40.332-1.55-60.504h-561.65c23.27-91.543 90-138.09 181.52-138.09 71.38 0 125.67 26.387 186.19 85.332l162.91-134.98C1612.3 399.03 1495.93 330.77 1329.92 330.77c-263.75 0-449.932 176.875-449.932 435.976M1800.93 1190.32h301V614.695h404.81v-263.75h-705.81v839.375M3172.66 766.746v3.106c0 103.95-75.99 190.832-179.96 190.832-107.05 0-175.32-85.34-175.32-187.727v-3.105c0-102.403 74.47-189.297 178.43-189.297 107.05 0 176.85 85.332 176.85 186.19zm-640.77 0v3.106c0 238.938 195.5 439.078 463.92 439.078 268.4 0 462.35-197.04 462.35-435.973v-3.105c0-238.934-195.5-439.082-465.46-439.082-266.87 0-460.81 197.05-460.81 435.976M3502.49 642.63v547.69h294.79V735.715c0-91.543 48.1-141.184 119.47-141.184 71.38 0 124.11 49.642 124.11 141.185v454.605h293.25V350.945h-293.25v116.367c-54.29-69.824-131.86-135-251.33-135-178.44 0-287.04 119.473-287.04 310.317" fill="#171316"/><path d="M88.203 44.21c15.344 0 24.184 5.98 24.184 16.642v.52c0 9.866-7.8 16.366-24.703 16.366h-38.48V44.21zm-7.28 68.9c15.343 0 23.92 5.2 23.92 15.86v.51c0 9.89-7.796 15.61-22.878 15.61H49.203v-31.98zM.062 185.647h93.34c22.882 0 39.003-5.718 49.663-16.378 7.282-7.282 11.7-16.9 11.7-29.38v-.52c0-21.06-11.957-33.542-28.082-40.56 22.1-7.29 36.144-19.77 36.144-44.458v-.524c0-31.2-25.48-50.187-68.902-50.187H.062V185.65M196.098 185.648h146.386v-42.91H246.02V115.19h87.363V75.4H246.02v-28.86h97.765V3.642H196.098V185.65M365.875 30.68l28.078 33.55c17.945-14.308 37.965-21.85 59.024-21.85 13.523 0 20.8 4.68 20.8 12.48v.52c0 7.542-5.98 11.698-30.675 17.42-38.747 8.848-68.645 19.77-68.645 57.212v.52c0 33.796 26.777 58.238 70.46 58.238 30.942 0 55.122-8.32 74.884-24.18l-25.222-35.62c-16.64 11.69-34.836 17.928-50.96 17.928-12.223 0-18.204-5.187-18.204-11.687v-.52c0-8.32 6.242-11.97 31.465-17.69 41.858-9.09 67.862-22.61 67.862-56.68v-.52c0-37.17-29.383-59.28-73.586-59.28-32.238 0-62.918 10.14-85.28 30.16M598.57 141.45h-54.6v44.198h159.643v-44.2h-54.6V3.642H598.57v137.81M956.332 94.13v.518c0 26.262-18.984 49.14-46.805 49.14-27.558 0-46.02-22.358-46.02-48.616v-.524c0-26.257 18.977-49.136 46.544-49.136 27.82 0 46.282 22.347 46.282 48.617zm-144.57 0v.518c0 52.25 42.125 94.64 98.29 94.64 56.16 0 97.758-41.858 97.758-94.116v-.524C1007.81 42.378 965.688 0 909.527 0c-56.164 0-97.765 41.87-97.765 94.13M1044.2 185.648h145.61v-44.2h-95.16v-30.936h86.06v-41.87h-86.06v-65h-50.45v182.006M1306.02 3.64h50.7v182.01h-50.7zM1400.14 185.648h47.06l74.88-96.207v96.208h49.93V3.64h-44.2l-77.75 99.848V3.64h-49.92V185.65M1685.36 48.37c30.16 0 50.18 16.642 50.18 46.02v.508c0 29.122-20.02 46.032-50.18 46.032h-20.54V48.37zm-70.98 137.278h70.19c65.01 0 102.71-37.437 102.71-89.968v-.508c0-52.524-38.21-91.53-103.74-91.53h-69.16v182.006M1823.42 185.648h146.39v-42.91h-96.47V115.19h87.37V75.4h-87.37v-28.86h97.77V3.642h-147.69V185.65M2081.33 95.172c17.95 0 28.87 9.348 28.87 23.656v.524c0 15.597-10.92 23.918-29.12 23.918h-23.66V95.172zm-74.35 90.476h77.99c46.03 0 75.67-23.66 75.67-63.957v-.53c0-42.898-33.02-65.52-78.26-65.52h-24.96v-52h-50.44V185.65M2192.09 185.648h146.39v-42.91h-96.46V115.19h87.36V75.4h-87.36v-28.86h97.76V3.642h-147.69V185.65M2375.65 185.648h47.06l74.88-96.207v96.208h49.92V3.64h-44.2l-77.74 99.848V3.64h-49.92V185.65M2660.86 48.37c30.17 0 50.19 16.642 50.19 46.02v.508c0 29.122-20.02 46.032-50.19 46.032h-20.53V48.37zm-70.97 137.278h70.19c65.01 0 102.71-37.437 102.71-89.968v-.508c0-52.524-38.22-91.53-103.74-91.53h-69.16v182.006M2798.93 185.648h146.39v-42.91h-96.47V115.19h87.37V75.4h-87.37v-28.86h97.77V3.642h-147.69V185.65M2982.49 185.648h47.06l74.88-96.207v96.208h49.92V3.64h-44.2l-77.74 99.848V3.64h-49.92V185.65M3241.19 141.45h-54.61v44.198h159.64v-44.2h-54.59V3.642h-50.44v137.81M3446.84 30.68l28.08 33.55c17.94-14.308 37.96-21.85 59.02-21.85 13.53 0 20.8 4.68 20.8 12.48v.52c0 7.542-5.98 11.698-30.68 17.42-38.74 8.848-68.64 19.77-68.64 57.212v.52c0 33.796 26.78 58.238 70.46 58.238 30.94 0 55.12-8.32 74.89-24.18l-25.23-35.62c-16.64 11.69-34.84 17.928-50.97 17.928-12.21 0-18.19-5.187-18.19-11.687v-.52c0-8.32 6.24-11.97 31.46-17.69 41.86-9.09 67.87-22.61 67.87-56.68v-.52c0-37.17-29.39-59.28-73.59-59.28-32.24 0-62.93 10.14-85.28 30.16M3679.54 141.45h-54.61v44.198h159.64v-44.2h-54.6V3.642h-50.43v137.81M3869.33 71.77l-69.16 113.878h57.46l37.44-66.296 37.71 66.296h56.41L3920.03 72.55V3.64h-50.7v68.13M4014.93 185.648h50.44V47.84h88.14V3.64h-138.58V185.65M4185.23 185.648h146.39v-42.91h-96.47V115.19h87.36V75.4h-87.36v-28.86h97.77V3.642h-147.69V185.65" fill="#9299af"/></g></svg>
